<?xml version="1.0" encoding="UTF-8"?>
<svg xmlns="http://www.w3.org/2000/svg" xmlns:xlink="http://www.w3.org/1999/xlink" width="3750" height="2250" viewBox="0 0 3750 2250">

<path fill-rule="nonzero" fill="rgb(61.521912%, 67.771912%, 49.804688%)" fill-opacity="1" d="M 707.316406 1393.144531 C 705.941406 1393.039062 704.628906 1393.738281 703.945312 1394.9375 C 704.382812 1394.175781 703.921875 1394.925781 703.316406 1395.566406 C 702.714844 1396.210938 701.8125 1397.140625 700.683594 1398.304688 C 698.433594 1400.632812 695.230469 1403.945312 691.160156 1408.300781 C 683.023438 1417.011719 671.492188 1429.886719 657.4375 1447.179688 C 629.332031 1481.765625 591.160156 1534.195312 549.742188 1607.4375 C 472.753906 1743.578125 384.59375 1951.546875 329.355469 2250 L 336.613281 2250 C 391.726562 1952.992188 479.453125 1746.230469 555.949219 1610.960938 C 597.160156 1538.082031 635.085938 1485.953125 662.960938 1451.652344 C 676.898438 1434.5 688.320312 1421.808594 696.371094 1413.191406 C 700.394531 1408.882812 703.589844 1405.582031 705.839844 1403.25 C 706.964844 1402.082031 707.851562 1401.179688 708.523438 1400.460938 C 709.195312 1399.742188 709.476562 1399.636719 710.15625 1398.460938 C 711.121094 1396.761719 710.53125 1394.601562 708.839844 1393.621094 C 708.375 1393.351562 707.851562 1393.1875 707.316406 1393.148438 Z M 707.316406 1393.144531 "/>
<path fill-rule="nonzero" fill="rgb(61.521912%, 67.771912%, 49.804688%)" fill-opacity="1" d="M 726.699219 1340.722656 C 726.699219 1340.722656 703.296875 1348.464844 704.558594 1404.574219 C 719.558594 1376.933594 723.957031 1360.351562 726.699219 1340.722656 Z M 726.699219 1340.722656 "/>
<path fill-rule="nonzero" fill="rgb(61.521912%, 67.771912%, 49.804688%)" fill-opacity="1" d="M 766.945312 1372.121094 C 747.472656 1375.828125 728.652344 1382.046875 701.789062 1398.402344 C 756.699219 1409.3125 766.945312 1372.121094 766.945312 1372.121094 Z M 766.945312 1372.121094 "/>
<path fill-rule="nonzero" fill="rgb(61.521912%, 67.771912%, 49.804688%)" fill-opacity="1" d="M 678.105469 1343.921875 C 678.105469 1343.921875 651.855469 1369.0625 670.601562 1437.742188 C 681.304688 1399.230469 680.597656 1368.902344 678.105469 1343.921875 Z M 678.105469 1343.921875 "/>
<path fill-rule="nonzero" fill="rgb(61.521912%, 67.771912%, 49.804688%)" fill-opacity="1" d="M 631.296875 1382.210938 C 631.296875 1382.210938 606.753906 1405.992188 638.84375 1475.519531 C 641.933594 1432.066406 638.65625 1408.410156 631.296875 1382.210938 Z M 631.296875 1382.210938 "/>
<path fill-rule="nonzero" fill="rgb(61.521912%, 67.771912%, 49.804688%)" fill-opacity="1" d="M 580.308594 1411.386719 C 580.308594 1411.386719 556.6875 1450.960938 605.304688 1524.679688 C 602.832031 1473.398438 592.933594 1440.226562 580.308594 1411.386719 Z M 580.308594 1411.386719 "/>
<path fill-rule="nonzero" fill="rgb(61.521912%, 67.771912%, 49.804688%)" fill-opacity="1" d="M 535.339844 1443.683594 C 535.339844 1443.683594 505.648438 1490.796875 569.253906 1580.664062 C 566.269531 1518.734375 551.808594 1478.726562 535.339844 1443.683594 Z M 535.339844 1443.683594 "/>
<path fill-rule="nonzero" fill="rgb(61.521912%, 67.771912%, 49.804688%)" fill-opacity="1" d="M 475.121094 1489.1875 C 475.121094 1489.1875 438.816406 1550.539062 530.335938 1651.402344 C 520.761719 1578.058594 499.890625 1529.300781 475.121094 1489.1875 Z M 475.121094 1489.1875 "/>
<path fill-rule="nonzero" fill="rgb(61.521912%, 67.771912%, 49.804688%)" fill-opacity="1" d="M 403.375 1547.164062 C 403.375 1547.164062 374.675781 1625.1875 491.300781 1731.007812 C 467.777344 1644.980469 437.25 1591.097656 403.375 1547.164062 Z M 403.375 1547.164062 "/>
<path fill-rule="nonzero" fill="rgb(61.521912%, 67.771912%, 49.804688%)" fill-opacity="1" d="M 324.570312 1617.433594 C 324.570312 1617.433594 280.605469 1716.347656 439.527344 1854.769531 C 409.832031 1744.71875 370.25 1674.398438 324.570312 1617.433594 Z M 324.570312 1617.433594 "/>
<path fill-rule="nonzero" fill="rgb(61.521912%, 67.771912%, 49.804688%)" fill-opacity="1" d="M 225.925781 1716.777344 C 225.925781 1716.777344 142.15625 1840.167969 391.992188 2000.738281 C 355.898438 1869.242188 295.574219 1783.640625 225.925781 1716.777344 Z M 225.925781 1716.777344 "/>
<path fill-rule="nonzero" fill="rgb(61.521912%, 67.771912%, 49.804688%)" fill-opacity="1" d="M 129.195312 1850.621094 C 129.195312 1850.621094 20.105469 1991.632812 348.191406 2177.257812 C 300.792969 2025.242188 220.664062 1927.914062 129.195312 1850.621094 Z M 129.195312 1850.621094 "/>
<path fill-rule="nonzero" fill="rgb(61.521912%, 67.771912%, 49.804688%)" fill-opacity="1" d="M 762.71875 1411.367188 C 737.722656 1413.695312 706.359375 1419.878906 670.601562 1437.742188 C 741.601562 1443.023438 762.71875 1411.367188 762.71875 1411.367188 Z M 762.71875 1411.367188 "/>
<path fill-rule="nonzero" fill="rgb(61.521912%, 67.771912%, 49.804688%)" fill-opacity="1" d="M 734.304688 1459.546875 C 707.085938 1459.574219 679.824219 1460.734375 638.84375 1475.519531 C 714.480469 1487.496094 734.304688 1459.546875 734.304688 1459.546875 Z M 734.304688 1459.546875 "/>
<path fill-rule="nonzero" fill="rgb(61.521912%, 67.771912%, 49.804688%)" fill-opacity="1" d="M 697.378906 1511.320312 C 671.207031 1511.371094 640.367188 1514.542969 605.304688 1524.679688 C 690.789062 1546.816406 726.960938 1512.550781 726.960938 1512.550781 C 717.890625 1511.796875 708.019531 1511.300781 697.378906 1511.320312 Z M 697.378906 1511.320312 "/>
<path fill-rule="nonzero" fill="rgb(61.521912%, 67.771912%, 49.804688%)" fill-opacity="1" d="M 697.144531 1556.3125 C 661.507812 1556.394531 620.789062 1560.828125 569.253906 1580.664062 C 677.152344 1602.570312 710.050781 1556.457031 710.050781 1556.457031 C 705.816406 1556.351562 701.519531 1556.296875 697.144531 1556.324219 Z M 697.144531 1556.3125 "/>
<path fill-rule="nonzero" fill="rgb(61.521912%, 67.771912%, 49.804688%)" fill-opacity="1" d="M 696.664062 1609.976562 C 649.527344 1610.882812 597.175781 1619.71875 530.335938 1651.402344 C 664.695312 1673.691406 696.664062 1609.976562 696.664062 1609.976562 Z M 696.664062 1609.976562 "/>
<path fill-rule="nonzero" fill="rgb(61.521912%, 67.771912%, 49.804688%)" fill-opacity="1" d="M 695.65625 1685.621094 C 640.183594 1686.652344 573.148438 1695.582031 491.300781 1731.007812 C 646.808594 1755.863281 695.65625 1685.621094 695.65625 1685.621094 Z M 695.65625 1685.621094 "/>
<path fill-rule="nonzero" fill="rgb(61.521912%, 67.771912%, 49.804688%)" fill-opacity="1" d="M 695.515625 1766.972656 C 622.988281 1775.445312 537.957031 1797.277344 439.527344 1854.769531 C 649.878906 1867.832031 695.515625 1766.972656 695.515625 1766.972656 Z M 695.515625 1766.972656 "/>
<path fill-rule="nonzero" fill="rgb(61.521912%, 67.771912%, 49.804688%)" fill-opacity="1" d="M 688.644531 1860.042969 C 593.398438 1875.847656 496.074219 1912.644531 391.992188 2000.738281 C 688.859375 2009.433594 688.644531 1860.042969 688.644531 1860.042969 Z M 688.644531 1860.042969 "/>
<path fill-rule="nonzero" fill="rgb(61.521912%, 67.771912%, 49.804688%)" fill-opacity="1" d="M 705.679688 2014.3125 C 587.171875 2031.53125 468.824219 2073.316406 348.191406 2177.257812 C 724.8125 2193.25 705.679688 2014.3125 705.679688 2014.3125 Z M 705.679688 2014.3125 "/>
<path fill-rule="nonzero" fill="rgb(33.714294%, 43.920898%, 45.872498%)" fill-opacity="1" d="M 5.820312 1521.738281 C 3.890625 1521.699219 1.9375 1521.738281 0 1521.738281 L 0 1540.65625 C 13.859375 1540.65625 27.410156 1541.699219 40.660156 1543.789062 C 111.113281 1554.890625 174.664062 1594.015625 238.007812 1643.667969 C 364.695312 1742.96875 489.410156 1884.5 667.488281 1912.039062 C 813.121094 1934.5625 919.414062 1916.246094 993.621094 1878.882812 C 1003.449219 1897.699219 1013.871094 1916.78125 1024.988281 1936.269531 C 1083.449219 2038.695312 1154.53125 2149.445312 1188.191406 2249.996094 L 1208.210938 2249.996094 C 1174.441406 2143.664062 1100.289062 2030.773438 1041.210938 1927.273438 C 1030.109375 1907.816406 1019.789062 1888.84375 1010.089844 1870.214844 C 1069.179688 1836.011719 1105.21875 1789.085938 1122.160156 1742.585938 C 1141.328125 1689.988281 1136.890625 1638.027344 1112.328125 1605.949219 C 1100.050781 1589.910156 1082.199219 1579.226562 1061.269531 1577.652344 C 1040.339844 1576.074219 1016.839844 1583.203125 991.652344 1600.199219 C 940.84375 1634.480469 928.8125 1686.492188 940.472656 1744.335938 C 947.835938 1780.875 964.480469 1820.582031 985.25 1862.070312 C 915 1897.621094 812.867188 1915.445312 669.667969 1893.300781 C 500.035156 1867.066406 378.054688 1729.847656 249.210938 1628.855469 C 184.789062 1578.359375 118.363281 1536.945312 42.894531 1525.054688 C 30.757812 1523.140625 18.40625 1522.011719 5.820312 1521.734375 Z M 1054.519531 1596.433594 C 1056.601562 1596.371094 1058.609375 1596.40625 1060.558594 1596.566406 C 1076.160156 1597.742188 1088.238281 1604.96875 1097.589844 1617.183594 C 1116.300781 1641.613281 1121.960938 1687.507812 1104.46875 1735.484375 C 1089.148438 1777.523438 1056.609375 1821.179688 1001.75 1853.398438 C 981.589844 1812.949219 965.671875 1774.804688 958.902344 1741.21875 C 948.128906 1687.769531 957.273438 1646.605469 1002.511719 1616.082031 C 1022.488281 1602.601562 1040.011719 1596.871094 1054.519531 1596.433594 Z M 1054.519531 1596.433594 "/>
<path fill-rule="nonzero" fill="rgb(76.5625%, 80.859375%, 70.506287%)" fill-opacity="1" d="M 3466.320312 1418.820312 C 3411.78125 1419.917969 3355.371094 1439.5625 3297.640625 1497.296875 C 3164.910156 1630.015625 3267.359375 1874.695312 3052.351562 1955.324219 C 2823.699219 2041.070312 2475.648438 1878.925781 2406.160156 2223.285156 C 2404.320312 2232.359375 2402.820312 2241.230469 2401.488281 2250 L 3750 2250 L 3750 1479.398438 C 3664.511719 1480.019531 3568.730469 1416.761719 3466.320312 1418.820312 Z M 3466.320312 1418.820312 "/>
<path fill-rule="nonzero" fill="rgb(76.5625%, 80.859375%, 70.506287%)" fill-opacity="1" d="M 957.828125 1886.648438 C 951.449219 1886.6875 949.023438 1888.335938 945.644531 1890.804688 C 929.191406 1902.84375 944.203125 1929.488281 964.195312 1917.667969 C 967.085938 1915.957031 968.089844 1887.027344 959.9375 1886.695312 C 959.191406 1886.660156 958.488281 1886.644531 957.828125 1886.648438 Z M 1104.589844 1909.925781 C 1098.210938 1909.964844 1095.78125 1911.609375 1092.410156 1914.082031 C 1075.949219 1926.117188 1090.960938 1952.761719 1110.949219 1940.941406 C 1113.851562 1939.234375 1114.851562 1910.304688 1106.699219 1909.964844 C 1105.949219 1909.9375 1105.25 1909.921875 1104.589844 1909.925781 Z M 1028.949219 1929.320312 C 1022.570312 1929.359375 1020.140625 1931.007812 1016.761719 1933.476562 C 1000.308594 1945.515625 1015.320312 1972.15625 1035.308594 1960.339844 C 1038.210938 1958.628906 1039.210938 1929.703125 1031.058594 1929.363281 C 1030.308594 1929.332031 1029.609375 1929.316406 1028.949219 1929.320312 Z M 992.230469 1947.730469 C 985.851562 1947.769531 983.425781 1949.414062 980.046875 1951.886719 C 963.59375 1963.921875 978.601562 1990.566406 998.59375 1978.746094 C 1001.488281 1977.035156 1002.488281 1948.113281 994.34375 1947.773438 C 993.589844 1947.738281 992.886719 1947.726562 992.230469 1947.730469 Z M 917.09375 1955.828125 C 910.71875 1955.867188 908.292969 1957.515625 904.914062 1959.984375 C 888.457031 1972.023438 903.46875 1998.664062 923.460938 1986.847656 C 926.359375 1985.136719 927.359375 1956.207031 919.207031 1955.871094 C 918.457031 1955.84375 917.757812 1955.824219 917.09375 1955.828125 Z M 1076.960938 1961.855469 C 1070.578125 1961.894531 1068.148438 1963.535156 1064.769531 1966.003906 C 1048.320312 1978.042969 1063.328125 2004.6875 1083.320312 1992.867188 C 1086.21875 1991.15625 1087.21875 1962.230469 1079.070312 1961.894531 C 1078.320312 1961.859375 1077.621094 1961.851562 1076.960938 1961.851562 Z M 872.238281 1987.015625 C 865.859375 1987.054688 863.433594 1988.695312 860.054688 1991.167969 C 843.601562 2003.207031 858.609375 2029.851562 878.605469 2018.03125 C 881.496094 2016.320312 882.5 1987.394531 874.347656 1987.054688 C 873.601562 1987.023438 872.898438 1987.011719 872.238281 1987.015625 Z M 1048.710938 1999.980469 C 1042.339844 2000.019531 1039.910156 2001.664062 1036.53125 2004.132812 C 1020.070312 2016.171875 1035.089844 2042.816406 1055.078125 2030.996094 C 1057.96875 2029.285156 1058.980469 2000.359375 1050.828125 2000.023438 C 1050.078125 1999.988281 1049.378906 1999.976562 1048.710938 1999.980469 Z M 1125.28125 2001.089844 C 1118.898438 2001.128906 1116.46875 2002.769531 1113.089844 2005.242188 C 1096.640625 2017.28125 1111.648438 2043.925781 1131.640625 2032.101562 C 1134.539062 2030.394531 1135.539062 2001.46875 1127.390625 2001.128906 C 1126.640625 2001.097656 1125.941406 2001.085938 1125.28125 2001.085938 Z M 961.871094 2005.628906 C 955.488281 2005.667969 953.0625 2007.3125 949.6875 2009.785156 C 933.230469 2021.824219 948.242188 2048.464844 968.234375 2036.644531 C 971.128906 2034.933594 972.128906 2006.011719 963.980469 2005.667969 C 963.230469 2005.636719 962.527344 2005.625 961.871094 2005.628906 Z M 1013.410156 2009.867188 C 1007.039062 2009.90625 1004.609375 2011.550781 1001.230469 2014.019531 C 984.773438 2026.058594 999.785156 2052.703125 1019.769531 2040.882812 C 1022.671875 2039.167969 1023.679688 2010.246094 1015.519531 2009.90625 C 1014.769531 2009.875 1014.070312 2009.863281 1013.410156 2009.863281 Z M 1069.191406 2038.109375 C 1062.808594 2038.148438 1060.378906 2039.789062 1057.011719 2042.261719 C 1040.550781 2054.296875 1055.558594 2080.945312 1075.558594 2069.125 C 1078.449219 2067.414062 1079.449219 2038.488281 1071.300781 2038.148438 C 1070.558594 2038.113281 1069.851562 2038.101562 1069.191406 2038.109375 Z M 902.875 2047.636719 C 896.492188 2047.675781 894.066406 2049.320312 890.691406 2051.792969 C 874.234375 2063.828125 889.246094 2090.472656 909.238281 2078.652344 C 912.132812 2076.941406 913.132812 2048.019531 904.984375 2047.675781 C 904.234375 2047.644531 903.535156 2047.632812 902.875 2047.632812 Z M 975.863281 2053.070312 C 969.480469 2053.109375 967.054688 2054.753906 963.679688 2057.222656 C 947.222656 2069.261719 962.234375 2095.90625 982.226562 2084.089844 C 985.121094 2082.375 986.125 2053.449219 977.976562 2053.113281 C 977.226562 2053.078125 976.523438 2053.0625 975.863281 2053.070312 Z M 1026.828125 2070.585938 C 1020.449219 2070.628906 1018.019531 2072.269531 1014.640625 2074.742188 C 998.1875 2086.78125 1013.199219 2113.421875 1033.191406 2101.601562 C 1036.089844 2099.894531 1037.089844 2070.96875 1028.941406 2070.628906 C 1028.191406 2070.597656 1027.480469 2070.582031 1026.828125 2070.585938 Z M 929.386719 2093.890625 C 923.007812 2093.925781 920.582031 2095.570312 917.207031 2098.039062 C 900.75 2110.078125 915.761719 2136.722656 935.75 2124.902344 C 938.648438 2123.191406 939.652344 2094.269531 931.503906 2093.929688 C 930.75 2093.898438 930.050781 2093.882812 929.386719 2093.886719 Z M 987.992188 2108.011719 C 981.613281 2108.050781 979.1875 2109.691406 975.808594 2112.164062 C 959.355469 2124.199219 974.363281 2150.84375 994.359375 2139.023438 C 997.253906 2137.3125 998.257812 2108.386719 990.105469 2108.046875 C 989.355469 2108.015625 988.652344 2108.007812 987.992188 2108.007812 Z M 987.992188 2108.011719 "/>
<path fill-rule="nonzero" fill="rgb(76.5625%, 80.859375%, 70.506287%)" fill-opacity="1" d="M 159.542969 1216.25 C 153.164062 1216.300781 150.738281 1217.941406 147.359375 1220.410156 C 130.90625 1232.449219 145.917969 1259.09375 165.90625 1247.28125 C 168.800781 1245.558594 169.804688 1216.640625 161.652344 1216.300781 C 160.902344 1216.269531 160.203125 1216.25 159.542969 1216.25 Z M 306.304688 1239.53125 C 299.925781 1239.570312 297.496094 1241.210938 294.121094 1243.691406 C 277.664062 1255.722656 292.675781 1282.367188 312.667969 1270.550781 C 315.5625 1268.839844 316.566406 1239.910156 308.414062 1239.570312 C 307.664062 1239.539062 306.964844 1239.53125 306.304688 1239.53125 Z M 230.664062 1258.929688 C 224.28125 1258.96875 221.855469 1260.613281 218.476562 1263.085938 C 202.023438 1275.121094 217.03125 1301.765625 237.027344 1289.945312 C 239.921875 1288.234375 240.921875 1259.308594 232.773438 1258.96875 C 232.023438 1258.9375 231.320312 1258.925781 230.664062 1258.925781 Z M 193.941406 1277.339844 C 187.566406 1277.378906 185.140625 1279.019531 181.761719 1281.492188 C 165.304688 1293.53125 180.316406 1320.171875 200.308594 1308.351562 C 203.203125 1306.644531 204.207031 1277.71875 196.058594 1277.378906 C 195.304688 1277.347656 194.601562 1277.335938 193.941406 1277.335938 Z M 118.808594 1285.4375 C 112.433594 1285.476562 110.007812 1287.121094 106.628906 1289.59375 C 90.171875 1301.628906 105.183594 1328.273438 125.175781 1316.453125 C 128.070312 1314.742188 129.074219 1285.816406 120.921875 1285.476562 C 120.171875 1285.449219 119.472656 1285.433594 118.808594 1285.433594 Z M 278.671875 1291.460938 C 272.292969 1291.5 269.867188 1293.140625 266.488281 1295.609375 C 250.035156 1307.648438 265.046875 1334.292969 285.035156 1322.476562 C 287.933594 1320.761719 288.9375 1291.839844 280.785156 1291.5 C 280.035156 1291.464844 279.332031 1291.457031 278.671875 1291.460938 Z M 73.953125 1316.625 C 67.574219 1316.664062 65.148438 1318.304688 61.769531 1320.773438 C 45.316406 1332.8125 60.324219 1359.457031 80.316406 1347.636719 C 83.210938 1345.925781 84.214844 1317 76.0625 1316.664062 C 75.3125 1316.628906 74.613281 1316.617188 73.953125 1316.621094 Z M 250.429688 1329.585938 C 244.050781 1329.625 241.621094 1331.269531 238.246094 1333.742188 C 221.789062 1345.777344 236.800781 1372.425781 256.792969 1360.605469 C 259.6875 1358.890625 260.691406 1329.96875 252.542969 1329.628906 C 251.792969 1329.59375 251.089844 1329.582031 250.429688 1329.585938 Z M 326.992188 1330.695312 C 320.613281 1330.734375 318.1875 1332.378906 314.808594 1334.847656 C 298.355469 1346.886719 313.363281 1373.53125 333.355469 1361.710938 C 336.25 1360 337.253906 1331.074219 329.105469 1330.734375 C 328.355469 1330.707031 327.652344 1330.691406 326.992188 1330.695312 Z M 163.585938 1335.234375 C 157.203125 1335.273438 154.777344 1336.921875 151.402344 1339.390625 C 134.945312 1351.429688 149.957031 1378.070312 169.949219 1366.253906 C 172.84375 1364.542969 173.84375 1335.617188 165.695312 1335.277344 C 164.945312 1335.246094 164.242188 1335.230469 163.585938 1335.234375 Z M 215.125 1339.472656 C 208.75 1339.511719 206.320312 1341.15625 202.945312 1343.628906 C 186.488281 1355.664062 201.5 1382.308594 221.488281 1370.488281 C 224.386719 1368.777344 225.390625 1339.851562 217.238281 1339.515625 C 216.488281 1339.480469 215.785156 1339.46875 215.125 1339.472656 Z M 270.90625 1367.714844 C 264.523438 1367.753906 262.097656 1369.398438 258.722656 1371.867188 C 242.265625 1383.90625 257.277344 1410.550781 277.269531 1398.730469 C 280.164062 1397.019531 281.167969 1368.09375 273.015625 1367.753906 C 272.269531 1367.722656 271.566406 1367.710938 270.90625 1367.714844 Z M 104.589844 1377.242188 C 98.207031 1377.28125 95.78125 1378.929688 92.402344 1381.398438 C 75.949219 1393.4375 90.960938 1420.078125 110.953125 1408.257812 C 113.847656 1406.550781 114.847656 1377.625 106.699219 1377.285156 C 105.949219 1377.253906 105.246094 1377.238281 104.589844 1377.242188 Z M 177.578125 1382.675781 C 171.195312 1382.71875 168.769531 1384.359375 165.394531 1386.832031 C 148.9375 1398.867188 163.949219 1425.515625 183.941406 1413.695312 C 186.835938 1411.980469 187.839844 1383.058594 179.6875 1382.71875 C 178.941406 1382.683594 178.238281 1382.671875 177.578125 1382.675781 Z M 228.542969 1400.191406 C 222.164062 1400.234375 219.734375 1401.878906 216.359375 1404.347656 C 199.902344 1416.386719 214.914062 1443.03125 234.90625 1431.210938 C 237.800781 1429.5 238.800781 1400.574219 230.652344 1400.234375 C 229.902344 1400.207031 229.199219 1400.1875 228.542969 1400.195312 Z M 131.101562 1423.496094 C 124.722656 1423.53125 122.296875 1425.175781 118.921875 1427.644531 C 102.464844 1439.683594 117.472656 1466.328125 137.464844 1454.511719 C 140.363281 1452.800781 141.363281 1423.875 133.214844 1423.539062 C 132.464844 1423.503906 131.765625 1423.488281 131.101562 1423.496094 Z M 189.707031 1437.617188 C 183.328125 1437.65625 180.902344 1439.300781 177.523438 1441.769531 C 161.070312 1453.804688 176.078125 1480.453125 196.070312 1468.632812 C 198.96875 1466.921875 199.972656 1437.996094 191.820312 1437.65625 C 191.066406 1437.625 190.367188 1437.613281 189.707031 1437.617188 Z M 189.707031 1437.617188 "/>
<path fill-rule="nonzero" fill="rgb(76.5625%, 80.859375%, 70.506287%)" fill-opacity="1" d="M 644.09375 1030.421875 C 637.714844 1030.460938 635.289062 1032.109375 631.914062 1034.570312 C 615.457031 1046.609375 630.46875 1073.261719 650.460938 1061.441406 C 653.351562 1059.730469 654.355469 1030.800781 646.207031 1030.460938 C 645.457031 1030.429688 644.753906 1030.410156 644.09375 1030.421875 Z M 790.855469 1053.691406 C 784.476562 1053.730469 782.050781 1055.378906 778.675781 1057.851562 C 762.214844 1069.890625 777.226562 1096.53125 797.21875 1084.710938 C 800.117188 1083 801.117188 1054.070312 792.96875 1053.730469 C 792.214844 1053.710938 791.515625 1053.691406 790.855469 1053.691406 Z M 715.214844 1073.089844 C 708.832031 1073.128906 706.40625 1074.78125 703.03125 1077.25 C 686.574219 1089.289062 701.582031 1115.929688 721.578125 1104.109375 C 724.472656 1102.398438 725.472656 1073.46875 717.324219 1073.128906 C 716.578125 1073.101562 715.875 1073.089844 715.214844 1073.089844 Z M 678.496094 1091.5 C 672.117188 1091.539062 669.691406 1093.179688 666.3125 1095.660156 C 649.859375 1107.691406 664.867188 1134.339844 684.863281 1122.519531 C 687.753906 1120.808594 688.757812 1091.878906 680.609375 1091.539062 C 679.859375 1091.511719 679.152344 1091.5 678.496094 1091.5 Z M 603.363281 1099.601562 C 596.984375 1099.640625 594.558594 1101.289062 591.179688 1103.75 C 574.726562 1115.789062 589.738281 1142.441406 609.730469 1130.621094 C 612.625 1128.910156 613.625 1099.980469 605.472656 1099.640625 C 604.726562 1099.609375 604.023438 1099.589844 603.363281 1099.601562 Z M 763.226562 1105.621094 C 756.84375 1105.660156 754.417969 1107.308594 751.042969 1109.769531 C 734.585938 1121.808594 749.597656 1148.460938 769.589844 1136.640625 C 772.484375 1134.929688 773.488281 1106 765.335938 1105.660156 C 764.589844 1105.628906 763.886719 1105.621094 763.226562 1105.621094 Z M 558.503906 1130.789062 C 552.125 1130.828125 549.699219 1132.46875 546.324219 1134.941406 C 529.867188 1146.980469 544.875 1173.621094 564.871094 1161.800781 C 567.761719 1160.089844 568.765625 1131.160156 560.617188 1130.820312 C 559.867188 1130.789062 559.164062 1130.78125 558.503906 1130.789062 Z M 734.980469 1143.75 C 728.601562 1143.789062 726.175781 1145.429688 722.800781 1147.898438 C 706.339844 1159.941406 721.351562 1186.589844 741.34375 1174.769531 C 744.242188 1173.058594 745.242188 1144.128906 737.09375 1143.789062 C 736.34375 1143.761719 735.644531 1143.75 734.980469 1143.75 Z M 811.546875 1144.859375 C 805.164062 1144.898438 802.738281 1146.539062 799.359375 1149.011719 C 782.90625 1161.050781 797.914062 1187.691406 817.910156 1175.871094 C 820.800781 1174.160156 821.808594 1145.238281 813.65625 1144.898438 C 812.910156 1144.871094 812.203125 1144.859375 811.546875 1144.859375 Z M 648.136719 1149.398438 C 641.753906 1149.441406 639.328125 1151.089844 635.953125 1153.558594 C 619.496094 1165.589844 634.507812 1192.230469 654.5 1180.410156 C 657.394531 1178.710938 658.394531 1149.78125 650.246094 1149.441406 C 649.496094 1149.410156 648.796875 1149.390625 648.136719 1149.398438 Z M 699.679688 1153.640625 C 693.300781 1153.679688 690.871094 1155.320312 687.496094 1157.789062 C 671.039062 1169.828125 686.050781 1196.46875 706.042969 1184.648438 C 708.9375 1182.941406 709.941406 1154.019531 701.789062 1153.679688 C 701.042969 1153.640625 700.335938 1153.628906 699.679688 1153.640625 Z M 755.457031 1181.878906 C 749.078125 1181.921875 746.652344 1183.558594 743.277344 1186.03125 C 726.820312 1198.070312 741.828125 1224.710938 761.820312 1212.890625 C 764.71875 1211.179688 765.71875 1182.261719 757.570312 1181.921875 C 756.820312 1181.890625 756.117188 1181.871094 755.457031 1181.878906 Z M 589.140625 1191.410156 C 582.761719 1191.441406 580.335938 1193.089844 576.957031 1195.558594 C 560.5 1207.601562 575.511719 1234.238281 595.503906 1222.421875 C 598.398438 1220.710938 599.402344 1191.789062 591.253906 1191.449219 C 590.5 1191.421875 589.800781 1191.398438 589.140625 1191.410156 Z M 662.128906 1196.839844 C 655.75 1196.878906 653.324219 1198.519531 649.949219 1200.988281 C 633.492188 1213.03125 648.503906 1239.679688 668.492188 1227.859375 C 671.390625 1226.140625 672.390625 1197.21875 664.242188 1196.878906 C 663.492188 1196.851562 662.789062 1196.839844 662.128906 1196.839844 Z M 713.09375 1214.359375 C 706.714844 1214.398438 704.289062 1216.039062 700.914062 1218.511719 C 684.453125 1230.550781 699.464844 1257.195312 719.457031 1245.371094 C 722.351562 1243.660156 723.355469 1214.738281 715.207031 1214.398438 C 714.453125 1214.371094 713.753906 1214.351562 713.09375 1214.359375 Z M 615.65625 1237.660156 C 609.277344 1237.691406 606.847656 1239.339844 603.472656 1241.808594 C 587.019531 1253.847656 602.027344 1280.492188 622.019531 1268.671875 C 624.914062 1266.960938 625.917969 1238.039062 617.769531 1237.699219 C 617.015625 1237.671875 616.316406 1237.648438 615.65625 1237.660156 Z M 674.257812 1251.78125 C 667.878906 1251.820312 665.453125 1253.460938 662.078125 1255.933594 C 645.621094 1267.96875 660.628906 1294.617188 680.625 1282.792969 C 683.519531 1281.082031 684.523438 1252.160156 676.371094 1251.820312 C 675.621094 1251.789062 674.917969 1251.777344 674.257812 1251.777344 Z M 674.257812 1251.78125 "/>
<path fill-rule="nonzero" fill="rgb(76.5625%, 80.859375%, 70.506287%)" fill-opacity="1" d="M 968.871094 1404.460938 C 962.492188 1404.5 960.066406 1406.148438 956.6875 1408.617188 C 940.234375 1420.65625 955.246094 1447.300781 975.234375 1435.480469 C 978.128906 1433.769531 979.132812 1404.839844 970.980469 1404.507812 C 970.234375 1404.472656 969.53125 1404.457031 968.871094 1404.460938 Z M 1115.628906 1427.738281 C 1109.25 1427.777344 1106.820312 1429.421875 1103.449219 1431.894531 C 1086.988281 1443.929688 1102 1470.574219 1122 1458.753906 C 1124.890625 1457.046875 1125.890625 1428.117188 1117.738281 1427.777344 C 1116.988281 1427.75 1116.289062 1427.734375 1115.628906 1427.738281 Z M 1039.988281 1447.132812 C 1033.609375 1447.171875 1031.179688 1448.820312 1027.808594 1451.289062 C 1011.351562 1463.328125 1026.359375 1489.96875 1046.359375 1478.152344 C 1049.25 1476.441406 1050.25 1447.515625 1042.101562 1447.175781 C 1041.351562 1447.144531 1040.648438 1447.128906 1039.988281 1447.132812 Z M 1003.269531 1465.542969 C 996.894531 1465.582031 994.46875 1467.226562 991.089844 1469.699219 C 974.632812 1481.734375 989.644531 1508.378906 1009.640625 1496.558594 C 1012.53125 1494.847656 1013.539062 1465.925781 1005.390625 1465.585938 C 1004.628906 1465.550781 1003.929688 1465.539062 1003.269531 1465.542969 Z M 928.136719 1473.640625 C 921.761719 1473.679688 919.335938 1475.328125 915.957031 1477.796875 C 899.5 1489.835938 914.511719 1516.476562 934.503906 1504.660156 C 937.398438 1502.949219 938.402344 1474.019531 930.25 1473.683594 C 929.5 1473.65625 928.800781 1473.636719 928.136719 1473.640625 Z M 1088 1479.667969 C 1081.621094 1479.707031 1079.191406 1481.347656 1075.820312 1483.816406 C 1059.359375 1495.855469 1074.378906 1522.5 1094.359375 1510.679688 C 1097.261719 1508.96875 1098.269531 1480.042969 1090.109375 1479.707031 C 1089.359375 1479.671875 1088.660156 1479.664062 1088 1479.664062 Z M 883.28125 1504.828125 C 876.902344 1504.871094 874.476562 1506.507812 871.097656 1508.980469 C 854.644531 1521.019531 869.652344 1547.664062 889.644531 1535.84375 C 892.539062 1534.132812 893.542969 1505.207031 885.390625 1504.867188 C 884.640625 1504.835938 883.941406 1504.824219 883.28125 1504.828125 Z M 1059.761719 1517.792969 C 1053.378906 1517.832031 1050.949219 1519.476562 1047.570312 1521.945312 C 1031.121094 1533.984375 1046.128906 1560.628906 1066.121094 1548.808594 C 1069.019531 1547.097656 1070.019531 1518.171875 1061.871094 1517.835938 C 1061.121094 1517.800781 1060.421875 1517.789062 1059.761719 1517.792969 Z M 1136.320312 1518.902344 C 1129.941406 1518.941406 1127.519531 1520.582031 1124.140625 1523.054688 C 1107.679688 1535.09375 1122.691406 1561.738281 1142.679688 1549.914062 C 1145.578125 1548.207031 1146.589844 1519.28125 1138.429688 1518.941406 C 1137.679688 1518.910156 1136.980469 1518.898438 1136.320312 1518.898438 Z M 972.914062 1523.441406 C 966.53125 1523.480469 964.105469 1525.125 960.730469 1527.597656 C 944.273438 1539.636719 959.285156 1566.277344 979.277344 1554.457031 C 982.171875 1552.75 983.171875 1523.824219 975.023438 1523.480469 C 974.273438 1523.449219 973.570312 1523.4375 972.914062 1523.441406 Z M 1024.449219 1527.679688 C 1018.078125 1527.71875 1015.648438 1529.363281 1012.269531 1531.835938 C 995.816406 1543.871094 1010.828125 1570.515625 1030.820312 1558.695312 C 1033.710938 1556.984375 1034.71875 1528.058594 1026.570312 1527.71875 C 1025.820312 1527.6875 1025.109375 1527.675781 1024.449219 1527.675781 Z M 1080.230469 1555.921875 C 1073.851562 1555.960938 1071.429688 1557.601562 1068.050781 1560.074219 C 1051.589844 1572.109375 1066.609375 1598.757812 1086.601562 1586.9375 C 1089.488281 1585.226562 1090.5 1556.300781 1082.339844 1555.960938 C 1081.601562 1555.925781 1080.890625 1555.914062 1080.230469 1555.921875 Z M 913.917969 1565.449219 C 907.535156 1565.488281 905.109375 1567.132812 901.730469 1569.605469 C 885.277344 1581.640625 900.289062 1608.285156 920.28125 1596.464844 C 923.175781 1594.753906 924.175781 1565.832031 916.027344 1565.488281 C 915.277344 1565.457031 914.574219 1565.445312 913.917969 1565.449219 Z M 986.90625 1570.882812 C 980.523438 1570.921875 978.097656 1572.566406 974.722656 1575.035156 C 958.265625 1587.074219 973.277344 1613.71875 993.269531 1601.902344 C 996.164062 1600.1875 997.167969 1571.261719 989.015625 1570.925781 C 988.269531 1570.890625 987.566406 1570.875 986.90625 1570.882812 Z M 1037.871094 1588.398438 C 1031.488281 1588.441406 1029.058594 1590.085938 1025.691406 1592.554688 C 1009.230469 1604.59375 1024.238281 1631.234375 1044.230469 1619.414062 C 1047.128906 1617.707031 1048.128906 1588.78125 1039.980469 1588.441406 C 1039.230469 1588.410156 1038.53125 1588.394531 1037.871094 1588.398438 Z M 940.429688 1611.703125 C 934.050781 1611.738281 931.625 1613.382812 928.25 1615.851562 C 911.792969 1627.890625 926.804688 1654.535156 946.792969 1642.714844 C 949.691406 1641.003906 950.691406 1612.082031 942.546875 1611.742188 C 941.792969 1611.710938 941.09375 1611.695312 940.429688 1611.699219 Z M 999.035156 1625.824219 C 992.65625 1625.863281 990.230469 1627.503906 986.851562 1629.976562 C 970.398438 1642.011719 985.40625 1668.65625 1005.398438 1656.835938 C 1008.300781 1655.125 1009.300781 1626.199219 1001.148438 1625.859375 C 1000.390625 1625.828125 999.695312 1625.820312 999.035156 1625.820312 Z M 999.035156 1625.824219 "/>
<path fill-rule="nonzero" fill="rgb(76.5625%, 80.859375%, 70.506287%)" fill-opacity="1" d="M 0 0 L 0 1228.289062 C 246.148438 1123.011719 261.675781 712.808594 527.160156 613.25 C 683.558594 554.601562 813.585938 727.480469 937.050781 686.171875 C 1165.179688 609.839844 1283.511719 389.109375 1492.980469 299.339844 C 1853.160156 144.988281 2417.71875 387.328125 2542.160156 0 Z M 0 0 "/>
<path fill-rule="nonzero" fill="rgb(61.521912%, 67.771912%, 49.804688%)" fill-opacity="1" d="M 1492.160156 0 C 1542.539062 428.171875 2054.789062 188.328125 2373.171875 324.769531 C 2545.769531 398.75 2643.28125 580.621094 2831.261719 643.519531 C 2932.988281 677.558594 3040.140625 535.109375 3169.011719 583.429688 C 3391.339844 666.808594 3400.921875 1014.570312 3613.46875 1094.28125 C 3657.5 1110.789062 3703.789062 1121.328125 3750 1125.351562 L 3750 0 Z M 1492.160156 0 "/>
<path fill-rule="nonzero" fill="rgb(33.714294%, 43.920898%, 45.872498%)" fill-opacity="1" d="M 0 0 L 0 482.359375 C 137.183594 477.511719 286.039062 486.339844 393.988281 445.859375 C 531.695312 394.21875 569.652344 239.480469 732.078125 240.359375 C 1257.480469 243.210938 1368.808594 306 1800.28125 0 Z M 0 0 "/>
<path fill-rule="nonzero" fill="rgb(33.714294%, 43.920898%, 45.872498%)" fill-opacity="1" d="M 3202.160156 1463.972656 C 3132.660156 1462.902344 3067.058594 1474.28125 3009.558594 1508.777344 C 2936.089844 1552.859375 2908.890625 1647.929688 2876.390625 1735.769531 C 2860.148438 1779.691406 2842.679688 1821.980469 2818.46875 1855.671875 C 2794.269531 1889.363281 2763.699219 1914.476562 2720 1925.402344 C 2539.578125 1970.507812 2381.761719 1963.039062 2253.289062 2000.015625 C 2189.050781 2018.507812 2132.089844 2048.441406 2084.589844 2101.769531 C 2051.609375 2138.78125 2023.25 2186.925781 1999.691406 2250 L 2015.75 2250 C 2038.371094 2190.953125 2065.179688 2146.113281 2095.789062 2111.753906 C 2141.199219 2060.773438 2195.050781 2032.390625 2257.441406 2014.433594 C 2382.199219 1978.519531 2540.859375 1985.648438 2723.640625 1939.953125 C 2771.039062 1928.101562 2804.980469 1900.152344 2830.648438 1864.425781 C 2856.320312 1828.699219 2874.089844 1785.222656 2890.46875 1740.972656 C 2923.199219 1652.476562 2950.699219 1561.585938 3017.28125 1521.636719 C 3096.441406 1474.144531 3193.308594 1472.394531 3296.878906 1487.003906 C 3400.441406 1501.613281 3510.148438 1532.527344 3614.039062 1548.671875 C 3660.820312 1555.945312 3706.519531 1560.191406 3750 1558.507812 L 3750 1543.425781 C 3707.71875 1545.132812 3662.839844 1541.078125 3616.351562 1533.851562 C 3513.75 1517.90625 3403.96875 1486.960938 3298.96875 1472.148438 C 3266.160156 1467.519531 3233.75 1464.460938 3202.160156 1463.972656 Z M 3202.160156 1463.972656 "/>
<path fill-rule="nonzero" fill="rgb(33.714294%, 43.920898%, 45.872498%)" fill-opacity="1" d="M 3485.378906 0 C 3438.449219 51.429688 3396.421875 101.898438 3354.210938 152.359375 C 2974.710938 32.671875 2785.351562 21.109375 2756.5 76.269531 C 2999.839844 153.050781 3142.789062 275.828125 3339.308594 170.070312 C 3287.308594 231.980469 3233.960938 294.019531 3169.621094 357.851562 C 2869.871094 205.621094 2626.988281 379.179688 2645.96875 371.039062 C 2809.109375 422.808594 2976.691406 439.769531 3155.089844 372.148438 C 3103.96875 421.769531 3045.800781 472.550781 2976.109375 525.25 C 2839.691406 485.429688 2714.941406 480.609375 2608.589844 530.949219 C 2582.179688 525.640625 2807.921875 596.851562 2941.511719 550.859375 C 2899.519531 581.328125 2853.550781 612.460938 2802.71875 644.429688 C 2698.359375 609.269531 2624.898438 595.738281 2567.570312 615.710938 C 2559 614.558594 2666.261719 687.039062 2762.25 669.421875 C 2741.890625 681.769531 2720.808594 694.25 2698.921875 706.859375 C 2652.570312 718.308594 2667.980469 658.710938 2554.398438 792.640625 C 2663.410156 783.371094 2675.96875 785.410156 2709.210938 723.820312 C 2740.089844 706.019531 2769.421875 688.480469 2797.351562 671.160156 C 2747.480469 730.921875 2794.5 799.339844 2794.78125 865.21875 C 2802.378906 887.238281 2844.691406 729.179688 2816.820312 658.988281 C 2871.378906 624.570312 2920.398438 591.058594 2964.949219 558.289062 C 2893.171875 645.839844 2922.769531 824.808594 2928.539062 848.761719 C 2978.5 750.710938 3001.03125 696.730469 2987.28125 541.628906 C 3053.808594 491.359375 3109.921875 442.808594 3159.5 395.371094 C 3110.480469 495.871094 3103.179688 672.5 3110.371094 869.578125 C 3119.160156 870.050781 3276.941406 487.699219 3185.421875 370.121094 C 3247.351562 308.558594 3299.148438 248.75 3349.171875 189.28125 C 3251.558594 436.089844 3326.339844 954.058594 3353.070312 913.808594 C 3416.121094 663.191406 3493.378906 415.429688 3369.359375 165.300781 C 3415.359375 110.371094 3460.859375 55.621094 3512.429688 0 Z M 2928.570312 848.769531 C 2928.359375 849.261719 2928.121094 849.660156 2927.910156 850.148438 C 2928.28125 852.609375 2928.46875 851.910156 2928.570312 848.769531 Z M 2928.570312 848.769531 "/>
</svg>
